# xmcd CD database file
#
# Track frame offsets:
#	150
#	16165
#	30600
#	45685
#	57620
#	76585
#	93620
#	109880
#	123075
#	134930
#	145690
#	169075
#	188710
#	205770
#	220175
#	236990
#	251600
#	265700
#
# Disc length: 3595 seconds
#
# Revision: 0
# Processed by: cddbd v1.5.2PL0 Copyright (c) Steve Scherf et al.
# Submitted via: CDex 1.51
#
DISCID=010e0912
DTITLE=Various  - The Music Lives On
DYEAR=1900
DGENRE=Country
TTITLE0=Lindsay Butler - When the Rain Tumbles Down In July
TTITLE1=Brian Letton - Leave Him In The Longyard
TTITLE2=Shaza Leigh - Song Of Granny
TTITLE3=Tom Maxwell - The Isa Rodeo
TTITLE4=Sharon Heaslip - Saddle Boy
TTITLE5=Rick Aitchison - Where The Mitchel Grass Once Grew
TTITLE6=Ken Lindsay - Where Country Is
TTITLE7=Rick and Cathy - The Old Rusty Bell
TTITLE8=Nick Erby - Lawson Ghost
TTITLE9=Lindsay Waddington - Country Revival
TTITLE10=Corrinna Cordwell - When the moon Across The Bushland Beams
TTITLE11=Dean Perrett - Camooweal
TTITLE12=Anita  Ree - Grandfather Johnson
TTITLE13=Ashley Cook - The Battle with The Roan
TTITLE14=Keitth Jamieson - A Picture Of Home
TTITLE15=Terry Gordon - Born To A Rolling Stone
TTITLE16=Ernie Constance - That Old Hat
TTITLE17=Reprise
EXTD=
EXTT0=
EXTT1=
EXTT2=
EXTT3=
EXTT4=
EXTT5=
EXTT6=
EXTT7=
EXTT8=
EXTT9=
EXTT10=
EXTT11=
EXTT12=
EXTT13=
EXTT14=
EXTT15=
EXTT16=
EXTT17=
PLAYORDER=
